<svg width="15" height="15" viewBox="0 0 15 15" fill="none" xmlns="http://www.w3.org/2000/svg">
<path d="M4 4.5H1M4 10.5H1M5.5 11.5V10.9999C5.5 9.61917 6.61929 8.5 8 8.5C9.38071 8.5 10.5 9.61929 10.5 11V11.5H5.5ZM8 3.5C7.17157 3.5 6.5 4.17157 6.5 5C6.5 5.82843 7.17157 6.5 8 6.5C8.82843 6.5 9.5 5.82843 9.5 5C9.5 4.17157 8.82843 3.5 8 3.5ZM3.5 0.5H12.5C13.0523 0.5 13.5 0.947715 13.5 1.5V13.5C13.5 14.0523 13.0523 14.5 12.5 14.5H3.5C2.94772 14.5 2.5 14.0523 2.5 13.5V1.5C2.5 0.947716 2.94772 0.5 3.5 0.5Z" stroke="#1D1929"/>
</svg>
