<svg width="15" height="15" viewBox="0 0 15 15" fill="none" xmlns="http://www.w3.org/2000/svg">
<path d="M6.85352 5.85355L7.20708 5.5L6.49997 4.79289L6.14642 5.14645L6.85352 5.85355ZM4.49997 7.5L4.14642 7.14645L3.79286 7.5L4.14642 7.85355L4.49997 7.5ZM6.14642 9.85355L6.49997 10.2071L7.20708 9.5L6.85352 9.14645L6.14642 9.85355ZM7.49997 0.5V0V0.5ZM14.5 7.5H15H14.5ZM0.499969 7.5H0.999969H0.499969ZM7.49997 14.5V14V14.5ZM6.14642 5.14645L4.14642 7.14645L4.85352 7.85355L6.85352 5.85355L6.14642 5.14645ZM4.14642 7.85355L6.14642 9.85355L6.85352 9.14645L4.85352 7.14645L4.14642 7.85355ZM4.49997 8L11 8L11 7L4.49997 7V8ZM7.49997 1C11.0898 1 14 3.91015 14 7.5H15C15 3.35786 11.6421 3.57628e-07 7.49997 0V1ZM0.999969 7.5C0.99997 3.91015 3.91012 1 7.49997 1V0C3.35783 -3.57628e-07 -3.016e-05 3.35786 -3.05176e-05 7.5H0.999969ZM7.49997 14C3.91012 14 0.999969 11.0899 0.999969 7.5H-3.05176e-05C-3.08752e-05 11.6421 3.35783 15 7.49997 15V14ZM7.49997 15C11.6421 15 15 11.6421 15 7.5H14C14 11.0899 11.0898 14 7.49997 14V15Z" fill="#1D1929"/>
</svg>
