<svg width="15" height="15" viewBox="0 0 15 15" fill="none" xmlns="http://www.w3.org/2000/svg">
<path d="M5 6.5H9V5.5H5V6.5ZM9.5 7V10H10.5V7H9.5ZM9 10.5H5V11.5H9V10.5ZM4.5 10V7H3.5V10H4.5ZM5 10.5C4.72386 10.5 4.5 10.2761 4.5 10H3.5C3.5 10.8284 4.17157 11.5 5 11.5V10.5ZM9.5 10C9.5 10.2761 9.27614 10.5 9 10.5V11.5C9.82843 11.5 10.5 10.8284 10.5 10H9.5ZM9 6.5C9.27614 6.5 9.5 6.72386 9.5 7H10.5C10.5 6.17157 9.82843 5.5 9 5.5V6.5ZM5 5.5C4.17157 5.5 3.5 6.17157 3.5 7H4.5C4.5 6.72386 4.72386 6.5 5 6.5V5.5ZM5.5 6V5H4.5V6H5.5ZM8.5 5V6H9.5V5H8.5ZM7 3.5C7.82843 3.5 8.5 4.17157 8.5 5H9.5C9.5 3.61929 8.38071 2.5 7 2.5V3.5ZM5.5 5C5.5 4.17157 6.17157 3.5 7 3.5V2.5C5.61929 2.5 4.5 3.61929 4.5 5H5.5Z" fill="#1D1929"/>
</svg>
