<svg width="16" height="16" viewBox="0 0 16 16" fill="none" xmlns="http://www.w3.org/2000/svg">
<g clip-path="url(#clip0_2722_339328)">
<path d="M14 2L2 14" stroke="#1D1929" stroke-linecap="round" stroke-linejoin="round"/>
<path d="M3.5 6C4.88071 6 6 4.88071 6 3.5C6 2.11929 4.88071 1 3.5 1C2.11929 1 1 2.11929 1 3.5C1 4.88071 2.11929 6 3.5 6Z" stroke="#1D1929" stroke-linecap="round" stroke-linejoin="round"/>
<path d="M12.5 15C13.8807 15 15 13.8807 15 12.5C15 11.1193 13.8807 10 12.5 10C11.1193 10 10 11.1193 10 12.5C10 13.8807 11.1193 15 12.5 15Z" stroke="#1D1929" stroke-linecap="round" stroke-linejoin="round"/>
</g>
<defs>
<clipPath id="clip0_2722_339328">
<rect width="16" height="16" fill="white"/>
</clipPath>
</defs>
</svg>
