<svg width="18" height="17" viewBox="0 0 18 17" fill="none" xmlns="http://www.w3.org/2000/svg">
<path d="M8.99987 2.66667C11.9454 2.66667 14.3332 5.05448 14.3332 8V14.4C14.3332 14.9891 13.8556 15.4667 13.2665 15.4667H4.7332C4.1441 15.4667 3.66654 14.9891 3.66654 14.4V8C3.66654 5.05448 6.05435 2.66667 8.99987 2.66667ZM8.99987 2.66667V0M5.26654 12.2667H12.7332M1.5332 8.53333V12.8M16.4665 8.53333V12.8M6.86654 10.1333C6.27743 10.1333 5.79987 9.65577 5.79987 9.06667C5.79987 8.47756 6.27743 8 6.86654 8C7.45564 8 7.9332 8.47756 7.9332 9.06667C7.9332 9.65577 7.45564 10.1333 6.86654 10.1333ZM11.1332 10.1333C10.5441 10.1333 10.0665 9.65577 10.0665 9.06667C10.0665 8.47756 10.5441 8 11.1332 8C11.7223 8 12.1999 8.47756 12.1999 9.06667C12.1999 9.65577 11.7223 10.1333 11.1332 10.1333Z" stroke="#1D1929" stroke-width="1.5"/>
</svg>
