<svg width="15" height="15" viewBox="0 0 15 15" fill="none" xmlns="http://www.w3.org/2000/svg">
<path d="M3.5 14.5V12.4995C3.5 10.8426 4.84315 9.5 6.5 9.5H8.5C10.1569 9.5 11.5 10.8426 11.5 12.4995V14.5M7.5 3.5C6.39543 3.5 5.5 4.39543 5.5 5.5C5.5 6.60457 6.39543 7.5 7.5 7.5C8.60457 7.5 9.5 6.60457 9.5 5.5C9.5 4.39543 8.60457 3.5 7.5 3.5ZM1.5 0.5H13.5C14.0523 0.5 14.5 0.947715 14.5 1.5V13.5C14.5 14.0523 14.0523 14.5 13.5 14.5H1.5C0.947716 14.5 0.5 14.0523 0.5 13.5V1.5C0.5 0.947716 0.947715 0.5 1.5 0.5Z" stroke="#1D1929" stroke-linecap="square"/>
</svg>
